<?xml version="1.0" ?><svg id="Layer_1" style="enable-background:new 0 0 96 96;" version="1.1" viewBox="0 0 96 96" xml:space="preserve" xmlns="http://www.w3.org/2000/svg" xmlns:xlink="http://www.w3.org/1999/xlink"><style type="text/css">
	.st0{fill-rule:evenodd;clip-rule:evenodd;fill:#6F9A9F;}
	.st1{fill-rule:evenodd;clip-rule:evenodd;fill:#4F4B6A;}
	.st2{fill-rule:evenodd;clip-rule:evenodd;fill:#70ADB3;}
	.st3{fill-rule:evenodd;clip-rule:evenodd;fill:#D1D3D4;}
	.st4{fill-rule:evenodd;clip-rule:evenodd;fill:#00AEEF;}
</style><g id="XMLID_2_"><rect class="st0" height="68.3" id="XMLID_23_" width="88" x="4" y="27.7"/><path class="st1" d="M32,8.1l14-7.6c1.2-0.7,2.6-0.7,3.8,0l14.1,7.6h19.1c1.3,0,2.4,0.5,3.2,1.5l9.3,11.9   c1,1.2,1.1,2.8,0.4,4.2c-0.7,1.4-2,2.2-3.6,2.2h-88c-1.6,0-2.9-0.8-3.6-2.2c-0.7-1.4-0.5-3,0.4-4.2l9.3-11.9c0.8-1,1.9-1.5,3.2-1.5   H32z" id="XMLID_22_"/><polygon class="st2" id="XMLID_21_" points="68,96 28,96 28,14.7 47.9,4 68,14.8  "/><rect class="st1" height="4" id="XMLID_20_" width="96" x="0" y="92"/><polygon class="st3" id="XMLID_19_" points="78.4,87.4 87.5,87.4 87.5,62.4 71.5,62.4 71.5,87.4  "/><rect class="st4" height="8" id="XMLID_18_" width="8" x="75.5" y="75.4"/><rect class="st4" height="5" id="XMLID_17_" width="8" x="75.5" y="66.4"/><polygon class="st3" id="XMLID_16_" points="14.9,87.4 24,87.4 24,62.4 8,62.4 8,87.4  "/><rect class="st4" height="8" id="XMLID_15_" width="8" x="12" y="75.4"/><rect class="st4" height="5" id="XMLID_14_" width="8" x="12" y="66.4"/><rect class="st3" height="38" id="XMLID_13_" width="28" x="34" y="54"/><rect class="st1" height="34" id="XMLID_12_" width="20" x="38" y="58"/><polygon class="st3" id="XMLID_11_" points="78.4,57 87.5,57 87.5,32 71.5,32 71.5,57  "/><rect class="st4" height="8" id="XMLID_10_" width="8" x="75.5" y="45"/><rect class="st4" height="5" id="XMLID_9_" width="8" x="75.5" y="36"/><polygon class="st3" id="XMLID_8_" points="14.9,57 24,57 24,32 8,32 8,57  "/><rect class="st4" height="8" id="XMLID_7_" width="8" x="12" y="45"/><rect class="st4" height="5" id="XMLID_6_" width="8" x="12" y="36"/><polygon class="st3" id="XMLID_5_" points="46.9,45 56,45 56,20 40,20 40,45  "/><rect class="st4" height="8" id="XMLID_4_" width="8" x="44" y="33"/><rect class="st4" height="5" id="XMLID_3_" width="8" x="44" y="24"/></g></svg>